<svg width="18" height="18" viewBox="0 0 18 18" fill="none" xmlns="http://www.w3.org/2000/svg">
<path d="M8.95834 1.95817C11.25 1.95817 11.5 1.95817 12.4167 1.99984C13.25 2.0415 13.7083 2.1665 14 2.2915C14.375 2.4165 14.7083 2.6665 15 2.9165C15.2917 3.20817 15.5 3.5415 15.625 3.9165C15.75 4.20817 15.875 4.6665 15.9167 5.49984C15.9583 6.4165 15.9583 6.6665 15.9583 8.95817C15.9583 11.2498 15.9583 11.4998 15.9167 12.4165C15.875 13.2498 15.75 13.7082 15.625 13.9998C15.3333 14.7498 14.75 15.3332 14 15.6248C13.7083 15.7498 13.25 15.8748 12.4167 15.9165C11.5 15.9582 11.25 15.9582 8.95834 15.9582C6.66667 15.9582 6.41667 15.9582 5.50001 15.9165C4.66667 15.8748 4.20834 15.7498 3.91667 15.6248C3.54167 15.4998 3.20834 15.2498 2.91667 14.9998C2.62501 14.7082 2.41667 14.3748 2.29167 13.9998C2.16667 13.7082 2.04167 13.2498 2.00001 12.4165C1.95834 11.4998 1.95834 11.2498 1.95834 8.95817C1.95834 6.6665 1.95834 6.4165 2.00001 5.49984C2.04167 4.6665 2.16667 4.20817 2.29167 3.9165C2.41667 3.5415 2.66667 3.20817 2.91667 2.9165C3.20834 2.62484 3.54167 2.4165 3.91667 2.2915C4.20834 2.1665 4.66667 2.0415 5.50001 1.99984C6.41667 1.95817 6.70834 1.95817 8.95834 1.95817ZM8.95834 0.416504C6.62501 0.416504 6.33334 0.416504 5.41667 0.458171C4.50001 0.499837 3.87501 0.624837 3.33334 0.874837C2.79167 1.08317 2.29167 1.4165 1.87501 1.83317C1.45834 2.24984 1.08334 2.7915 0.875005 3.33317C0.666672 3.87484 0.500005 4.49984 0.458338 5.4165C0.416672 6.33317 0.416672 6.62484 0.416672 8.95817C0.416672 11.2915 0.416672 11.5832 0.458338 12.4998C0.500005 13.4165 0.625005 14.0415 0.875005 14.5832C1.08334 15.1248 1.41667 15.6665 1.87501 16.0832C2.29167 16.4998 2.83334 16.8748 3.37501 17.0832C3.91667 17.2915 4.54167 17.4582 5.45834 17.4998C6.37501 17.5415 6.66667 17.5415 9.00001 17.5415C11.3333 17.5415 11.625 17.5415 12.5417 17.4998C13.4583 17.4582 14.0833 17.3332 14.625 17.0832C15.7917 16.6248 16.6667 15.7498 17.125 14.5832C17.3333 14.0415 17.5 13.4165 17.5417 12.4998C17.5833 11.5832 17.5833 11.2915 17.5833 8.95817C17.5833 6.62484 17.5833 6.33317 17.5417 5.4165C17.5 4.49984 17.375 3.87484 17.125 3.33317C16.9167 2.74984 16.5833 2.24984 16.125 1.83317C15.7083 1.4165 15.1667 1.0415 14.625 0.833171C14.0833 0.624837 13.4583 0.458171 12.5417 0.416504C11.5833 0.416504 11.2917 0.416504 8.95834 0.416504Z" fill="black"/>
<path d="M8.95834 4.58301C6.54168 4.58301 4.58334 6.54134 4.58334 8.95801C4.58334 11.3747 6.54168 13.333 8.95834 13.333C11.375 13.333 13.3333 11.3747 13.3333 8.95801C13.375 6.54134 11.4167 4.58301 8.95834 4.58301ZM8.95834 11.833C7.37501 11.833 6.12501 10.5413 6.12501 8.99967C6.12501 7.41634 7.41668 6.16634 8.95834 6.16634C10.5417 6.16634 11.7917 7.45801 11.7917 8.99967C11.8333 10.5413 10.5417 11.833 8.95834 11.833Z" fill="black"/>
<path d="M13.5417 5.45833C14.117 5.45833 14.5833 4.99196 14.5833 4.41667C14.5833 3.84137 14.117 3.375 13.5417 3.375C12.9664 3.375 12.5 3.84137 12.5 4.41667C12.5 4.99196 12.9664 5.45833 13.5417 5.45833Z" fill="black"/>
</svg>
